{"title":"Frenzy(1972)MP-4[DaScubaDude]","uid":13025826,"size":1165594200,"categoryP":"video","categoryS":"movies","magnet":"?xt=urn:btih:a2195fea5baf5e0e073cd9c1b3a6b02a17a0a15e&amp;dn=Frenzy%281972%29MP-4%5BDaScubaDude%5D&amp;tr=udp%3A%2F%2Ftracker.leechers-paradise.org%3A6969&amp;tr=udp%3A%2F%2Fzer0day.ch%3A1337&amp;tr=udp%3A%2F%2Fopen.demonii.com%3A1337&amp;tr=udp%3A%2F%2Ftracker.coppersurfer.tk%3A6969&amp;tr=udp%3A%2F%2Fexodus.desync.com%3A6969","seeders":0,"leechers":1,"uploader":"dascuba","files":1,"time":1450399927,"description":"A serial murderer is strangling women with a necktie. The London police have a suspect, but he is the wrong man.\r\nDirector: Alfred Hitchcock\r\nWriters: Arthur La Bern (novel), Anthony Shaffer (screenplay)\r\nStars: Jon Finch, Barry Foster, Alec McCowen\r\n\r\nGeneral\r\nComplete name                            :FrenzyFRENZY_Title1.mp4\r\nFormat                                   : MPEG-4\r\nFormat profile                           : Base Media\r\nCodec ID                                 : isom\r\nFile size                                : 1.09 GiB\r\nDuration                                 : 1h 55mn\r\nOverall bit rate                         : 1 341 Kbps\r\nMovie name                               : FRENZY\r\nGenre                                    : Thriller\r\nWriting application                      : Lavf54.6.100\r\n\r\nVideo\r\nID                                       : 1\r\nFormat                                   : AVC\r\nFormat/Info                              : Advanced Video Codec\r\nFormat profile                           :   \r\nFormat settings, CABAC                   : No\r\nFormat settings, ReFrames                : 6 frames\r\nFormat settings, GOP                     : M=1, N=60\r\nCodec ID                                 : avc1\r\nCodec ID/Info                            : Advanced Video Coding\r\nDuration                                 : 1h 55mn\r\nBit rate                                 : 1 198 Kbps\r\nWidth                                    : 720 pixels\r\nHeight                                   : 404 pixels\r\nDisplay aspect ratio                     : 16:9\r\nFrame rate mode                          : Constant\r\nFrame rate                               : 29.970 fps\r\nColor space                              : YUV\r\nChroma subsampling                       : 4:2:0\r\nBit depth                                : 8 bits\r\nScan type                                : Progressive\r\nBits/(Pixel*Frame)                       : 0.137\r\nStream size                              : 993 MiB (89%)\r\n\r\nAudio\r\nID                                       : 2\r\nFormat                                   : AAC\r\nFormat/Info                              : Advanced Audio Codec\r\nFormat profile                           : LC\r\nCodec ID                                 : 40\r\nDuration                                 : 1h 55mn\r\nBit rate mode                            : Constant\r\nBit rate                                 : 136 Kbps\r\nChannel(s)                               : 2 channels\r\nChannel positions                        : Front: L R\r\nSampling rate                            : 44.1 KHz\r\nCompression mode                         : Lossy\r\nStream size                              : 113 MiB (10%)","torrent":{"xt":"urn:btih:a2195fea5baf5e0e073cd9c1b3a6b02a17a0a15e","amp;dn":"Frenzy%281972%29MP-4%5BDaScubaDude%5D","amp;tr":["udp%3A%2F%2Ftracker.leechers-paradise.org%3A6969","udp%3A%2F%2Fzer0day.ch%3A1337","udp%3A%2F%2Fopen.demonii.com%3A1337","udp%3A%2F%2Ftracker.coppersurfer.tk%3A6969","udp%3A%2F%2Fexodus.desync.com%3A6969"],"infoHash":"a2195fea5baf5e0e073cd9c1b3a6b02a17a0a15e","infoHashBuffer":{"type":"Buffer","data":[162,25,95,234,91,175,94,14,7,60,217,193,179,166,176,42,23,160,161,94]},"announce":[],"urlList":[]}}